<svg xmlns="http://www.w3.org/2000/svg" width="1640" height="624" viewBox="0 0 1640 624" role="img" aria-label="BEGIN WITH DRACULA">
  <rect width="100%" height="100%" fill="#130D0C"/>
  <rect width="100%" height="100%" fill="#514742" opacity="0.09"/>
  <circle cx="97" cy="53" r="1" fill="#F7F1E8" opacity="0.045"/>
  <circle cx="194" cy="106" r="1" fill="#F7F1E8" opacity="0.045"/>
  <circle cx="291" cy="159" r="1" fill="#F7F1E8" opacity="0.045"/>
  <circle cx="388" cy="212" r="1" fill="#F7F1E8" opacity="0.045"/>
  <circle cx="485" cy="265" r="1" fill="#F7F1E8" opacity="0.045"/>
  <circle cx="582" cy="318" r="1" fill="#F7F1E8" opacity="0.045"/>
  <circle cx="679" cy="371" r="1" fill="#F7F1E8" opacity="0.045"/>
  <circle cx="776" cy="424" r="1" fill="#F7F1E8" opacity="0.045"/>
  <circle cx="873" cy="477" r="1" fill="#F7F1E8" opacity="0.045"/>
  <circle cx="970" cy="530" r="1" fill="#F7F1E8" opacity="0.045"/>
  <circle cx="1067" cy="583" r="1" fill="#F7F1E8" opacity="0.045"/>
  <circle cx="1164" cy="12" r="1" fill="#F7F1E8" opacity="0.045"/>
  <circle cx="1261" cy="65" r="1" fill="#F7F1E8" opacity="0.045"/>
  <circle cx="1358" cy="118" r="1" fill="#F7F1E8" opacity="0.045"/>
  <circle cx="1455" cy="171" r="1" fill="#F7F1E8" opacity="0.045"/>
  <circle cx="1552" cy="224" r="1" fill="#F7F1E8" opacity="0.045"/>
  <circle cx="9" cy="277" r="1" fill="#F7F1E8" opacity="0.045"/>
  <circle cx="106" cy="330" r="1" fill="#F7F1E8" opacity="0.045"/>
  <circle cx="203" cy="383" r="1" fill="#F7F1E8" opacity="0.045"/>
  <circle cx="300" cy="436" r="1" fill="#F7F1E8" opacity="0.045"/>
  <circle cx="397" cy="489" r="1" fill="#F7F1E8" opacity="0.045"/>
  <circle cx="494" cy="542" r="1" fill="#F7F1E8" opacity="0.045"/>
  <circle cx="591" cy="595" r="1" fill="#F7F1E8" opacity="0.045"/>
  <circle cx="688" cy="24" r="1" fill="#F7F1E8" opacity="0.045"/>
  <circle cx="785" cy="77" r="1" fill="#F7F1E8" opacity="0.045"/>
  <circle cx="882" cy="130" r="1" fill="#F7F1E8" opacity="0.045"/>
  <circle cx="979" cy="183" r="1" fill="#F7F1E8" opacity="0.045"/>
  <circle cx="1076" cy="236" r="1" fill="#F7F1E8" opacity="0.045"/>
  <circle cx="1173" cy="289" r="1" fill="#F7F1E8" opacity="0.045"/>
  <circle cx="1270" cy="342" r="1" fill="#F7F1E8" opacity="0.045"/>
  <circle cx="1367" cy="395" r="1" fill="#F7F1E8" opacity="0.045"/>
  <circle cx="1464" cy="448" r="1" fill="#F7F1E8" opacity="0.045"/>
  <circle cx="1561" cy="501" r="1" fill="#F7F1E8" opacity="0.045"/>
  <circle cx="18" cy="554" r="1" fill="#F7F1E8" opacity="0.045"/>
  <circle cx="115" cy="607" r="1" fill="#F7F1E8" opacity="0.045"/>
  <circle cx="212" cy="36" r="1" fill="#F7F1E8" opacity="0.045"/>
  <circle cx="309" cy="89" r="1" fill="#F7F1E8" opacity="0.045"/>
  <circle cx="406" cy="142" r="1" fill="#F7F1E8" opacity="0.045"/>
  <circle cx="503" cy="195" r="1" fill="#F7F1E8" opacity="0.045"/>
  <circle cx="600" cy="248" r="1" fill="#F7F1E8" opacity="0.045"/>
  <circle cx="697" cy="301" r="1" fill="#F7F1E8" opacity="0.045"/>
  <circle cx="794" cy="354" r="1" fill="#F7F1E8" opacity="0.045"/>
  <circle cx="891" cy="407" r="1" fill="#F7F1E8" opacity="0.045"/>
  <circle cx="988" cy="460" r="1" fill="#F7F1E8" opacity="0.045"/>
  <circle cx="1085" cy="513" r="1" fill="#F7F1E8" opacity="0.045"/>
  <circle cx="1182" cy="566" r="1" fill="#F7F1E8" opacity="0.045"/>
  <circle cx="1279" cy="619" r="1" fill="#F7F1E8" opacity="0.045"/>
  <circle cx="1376" cy="48" r="1" fill="#F7F1E8" opacity="0.045"/>
  <circle cx="1473" cy="101" r="1" fill="#F7F1E8" opacity="0.045"/>
  <circle cx="1570" cy="154" r="1" fill="#F7F1E8" opacity="0.045"/>
  <circle cx="27" cy="207" r="1" fill="#F7F1E8" opacity="0.045"/>
  <circle cx="124" cy="260" r="1" fill="#F7F1E8" opacity="0.045"/>
  <circle cx="221" cy="313" r="1" fill="#F7F1E8" opacity="0.045"/>
  <circle cx="318" cy="366" r="1" fill="#F7F1E8" opacity="0.045"/>
  <circle cx="415" cy="419" r="1" fill="#F7F1E8" opacity="0.045"/>
  <circle cx="512" cy="472" r="1" fill="#F7F1E8" opacity="0.045"/>
  <circle cx="609" cy="525" r="1" fill="#F7F1E8" opacity="0.045"/>
  <circle cx="706" cy="578" r="1" fill="#F7F1E8" opacity="0.045"/>
  <circle cx="803" cy="7" r="1" fill="#F7F1E8" opacity="0.045"/>
  <circle cx="900" cy="60" r="1" fill="#F7F1E8" opacity="0.045"/>
  <circle cx="997" cy="113" r="1" fill="#F7F1E8" opacity="0.045"/>
  <circle cx="1094" cy="166" r="1" fill="#F7F1E8" opacity="0.045"/>
  <circle cx="1191" cy="219" r="1" fill="#F7F1E8" opacity="0.045"/>
  <circle cx="1288" cy="272" r="1" fill="#F7F1E8" opacity="0.045"/>
  <circle cx="1385" cy="325" r="1" fill="#F7F1E8" opacity="0.045"/>
  <circle cx="1482" cy="378" r="1" fill="#F7F1E8" opacity="0.045"/>
  <circle cx="1579" cy="431" r="1" fill="#F7F1E8" opacity="0.045"/>
  <circle cx="36" cy="484" r="1" fill="#F7F1E8" opacity="0.045"/>
  <circle cx="133" cy="537" r="1" fill="#F7F1E8" opacity="0.045"/>
  <circle cx="230" cy="590" r="1" fill="#F7F1E8" opacity="0.045"/>
  <circle cx="327" cy="19" r="1" fill="#F7F1E8" opacity="0.045"/>
  <circle cx="424" cy="72" r="1" fill="#F7F1E8" opacity="0.045"/>
  <circle cx="521" cy="125" r="1" fill="#F7F1E8" opacity="0.045"/>
  <circle cx="618" cy="178" r="1" fill="#F7F1E8" opacity="0.045"/>
  <circle cx="715" cy="231" r="1" fill="#F7F1E8" opacity="0.045"/>
  <circle cx="812" cy="284" r="1" fill="#F7F1E8" opacity="0.045"/>
  <circle cx="909" cy="337" r="1" fill="#F7F1E8" opacity="0.045"/>
  <circle cx="1006" cy="390" r="1" fill="#F7F1E8" opacity="0.045"/>
  <circle cx="1103" cy="443" r="1" fill="#F7F1E8" opacity="0.045"/>
  <circle cx="1200" cy="496" r="1" fill="#F7F1E8" opacity="0.045"/>
  <circle cx="1297" cy="549" r="1" fill="#F7F1E8" opacity="0.045"/>
  <circle cx="1394" cy="602" r="1" fill="#F7F1E8" opacity="0.045"/>
  <circle cx="1491" cy="31" r="1" fill="#F7F1E8" opacity="0.045"/>
  <circle cx="1588" cy="84" r="1" fill="#F7F1E8" opacity="0.045"/>
  <circle cx="45" cy="137" r="1" fill="#F7F1E8" opacity="0.045"/>
  <circle cx="142" cy="190" r="1" fill="#F7F1E8" opacity="0.045"/>
  <circle cx="239" cy="243" r="1" fill="#F7F1E8" opacity="0.045"/>
  <circle cx="336" cy="296" r="1" fill="#F7F1E8" opacity="0.045"/>
  <circle cx="433" cy="349" r="1" fill="#F7F1E8" opacity="0.045"/>

  <rect x="34" y="34" width="1572" height="556" rx="0" fill="none" stroke="#B88A42" stroke-width="3" opacity="0.72"/>
  <line x1="54.400000000000006" y1="54.400000000000006" x2="1585.6" y2="54.400000000000006" stroke="#F7F1E8" stroke-width="1" opacity="0.34"/>
  <line x1="54.400000000000006" y1="569.6" x2="1585.6" y2="569.6" stroke="#F7F1E8" stroke-width="1" opacity="0.34"/>
  <text x="50%" y="95.2" text-anchor="middle" font-family="Arial, Helvetica, sans-serif" font-size="15" letter-spacing="9" fill="#B88A42">THE EARNALISM DIGITAL LIBRARY</text>
  <text x="50%" y="301.2" text-anchor="middle" font-family="Georgia, 'Times New Roman', serif" font-size="37" font-weight="500" fill="#F7F1E8">BEGIN WITH DRACULA</text>
  <text x="50%" y="346.0" text-anchor="middle" font-family="Georgia, 'Times New Roman', serif" font-size="18" font-style="italic" fill="#B88A42">Read Chapter 1 free. Bengali Gothic is coming.</text>
  <text x="50%" y="528.8" text-anchor="middle" font-family="Arial, Helvetica, sans-serif" font-size="15" letter-spacing="5" fill="#F7F1E8" opacity="0.78">READ BEAUTIFULLY. RETURN TO READING.</text>

</svg>
