<svg xmlns="http://www.w3.org/2000/svg" width="1080" height="1080" viewBox="0 0 1080 1080" role="img" aria-label="BEGIN WITH DRACULA">
  <rect width="100%" height="100%" fill="#130D0C"/>
  <rect width="100%" height="100%" fill="#514742" opacity="0.09"/>
  <circle cx="97" cy="53" r="1" fill="#F7F1E8" opacity="0.045"/>
  <circle cx="194" cy="106" r="1" fill="#F7F1E8" opacity="0.045"/>
  <circle cx="291" cy="159" r="1" fill="#F7F1E8" opacity="0.045"/>
  <circle cx="388" cy="212" r="1" fill="#F7F1E8" opacity="0.045"/>
  <circle cx="485" cy="265" r="1" fill="#F7F1E8" opacity="0.045"/>
  <circle cx="582" cy="318" r="1" fill="#F7F1E8" opacity="0.045"/>
  <circle cx="679" cy="371" r="1" fill="#F7F1E8" opacity="0.045"/>
  <circle cx="776" cy="424" r="1" fill="#F7F1E8" opacity="0.045"/>
  <circle cx="873" cy="477" r="1" fill="#F7F1E8" opacity="0.045"/>
  <circle cx="970" cy="530" r="1" fill="#F7F1E8" opacity="0.045"/>
  <circle cx="1067" cy="583" r="1" fill="#F7F1E8" opacity="0.045"/>
  <circle cx="84" cy="636" r="1" fill="#F7F1E8" opacity="0.045"/>
  <circle cx="181" cy="689" r="1" fill="#F7F1E8" opacity="0.045"/>
  <circle cx="278" cy="742" r="1" fill="#F7F1E8" opacity="0.045"/>
  <circle cx="375" cy="795" r="1" fill="#F7F1E8" opacity="0.045"/>
  <circle cx="472" cy="848" r="1" fill="#F7F1E8" opacity="0.045"/>
  <circle cx="569" cy="901" r="1" fill="#F7F1E8" opacity="0.045"/>
  <circle cx="666" cy="954" r="1" fill="#F7F1E8" opacity="0.045"/>
  <circle cx="763" cy="1007" r="1" fill="#F7F1E8" opacity="0.045"/>
  <circle cx="860" cy="1060" r="1" fill="#F7F1E8" opacity="0.045"/>
  <circle cx="957" cy="33" r="1" fill="#F7F1E8" opacity="0.045"/>
  <circle cx="1054" cy="86" r="1" fill="#F7F1E8" opacity="0.045"/>
  <circle cx="71" cy="139" r="1" fill="#F7F1E8" opacity="0.045"/>
  <circle cx="168" cy="192" r="1" fill="#F7F1E8" opacity="0.045"/>
  <circle cx="265" cy="245" r="1" fill="#F7F1E8" opacity="0.045"/>
  <circle cx="362" cy="298" r="1" fill="#F7F1E8" opacity="0.045"/>
  <circle cx="459" cy="351" r="1" fill="#F7F1E8" opacity="0.045"/>
  <circle cx="556" cy="404" r="1" fill="#F7F1E8" opacity="0.045"/>
  <circle cx="653" cy="457" r="1" fill="#F7F1E8" opacity="0.045"/>
  <circle cx="750" cy="510" r="1" fill="#F7F1E8" opacity="0.045"/>
  <circle cx="847" cy="563" r="1" fill="#F7F1E8" opacity="0.045"/>
  <circle cx="944" cy="616" r="1" fill="#F7F1E8" opacity="0.045"/>
  <circle cx="1041" cy="669" r="1" fill="#F7F1E8" opacity="0.045"/>
  <circle cx="58" cy="722" r="1" fill="#F7F1E8" opacity="0.045"/>
  <circle cx="155" cy="775" r="1" fill="#F7F1E8" opacity="0.045"/>
  <circle cx="252" cy="828" r="1" fill="#F7F1E8" opacity="0.045"/>
  <circle cx="349" cy="881" r="1" fill="#F7F1E8" opacity="0.045"/>
  <circle cx="446" cy="934" r="1" fill="#F7F1E8" opacity="0.045"/>
  <circle cx="543" cy="987" r="1" fill="#F7F1E8" opacity="0.045"/>
  <circle cx="640" cy="1040" r="1" fill="#F7F1E8" opacity="0.045"/>
  <circle cx="737" cy="13" r="1" fill="#F7F1E8" opacity="0.045"/>
  <circle cx="834" cy="66" r="1" fill="#F7F1E8" opacity="0.045"/>
  <circle cx="931" cy="119" r="1" fill="#F7F1E8" opacity="0.045"/>
  <circle cx="1028" cy="172" r="1" fill="#F7F1E8" opacity="0.045"/>
  <circle cx="45" cy="225" r="1" fill="#F7F1E8" opacity="0.045"/>
  <circle cx="142" cy="278" r="1" fill="#F7F1E8" opacity="0.045"/>
  <circle cx="239" cy="331" r="1" fill="#F7F1E8" opacity="0.045"/>
  <circle cx="336" cy="384" r="1" fill="#F7F1E8" opacity="0.045"/>
  <circle cx="433" cy="437" r="1" fill="#F7F1E8" opacity="0.045"/>
  <circle cx="530" cy="490" r="1" fill="#F7F1E8" opacity="0.045"/>
  <circle cx="627" cy="543" r="1" fill="#F7F1E8" opacity="0.045"/>
  <circle cx="724" cy="596" r="1" fill="#F7F1E8" opacity="0.045"/>
  <circle cx="821" cy="649" r="1" fill="#F7F1E8" opacity="0.045"/>
  <circle cx="918" cy="702" r="1" fill="#F7F1E8" opacity="0.045"/>
  <circle cx="1015" cy="755" r="1" fill="#F7F1E8" opacity="0.045"/>
  <circle cx="32" cy="808" r="1" fill="#F7F1E8" opacity="0.045"/>
  <circle cx="129" cy="861" r="1" fill="#F7F1E8" opacity="0.045"/>
  <circle cx="226" cy="914" r="1" fill="#F7F1E8" opacity="0.045"/>
  <circle cx="323" cy="967" r="1" fill="#F7F1E8" opacity="0.045"/>
  <circle cx="420" cy="1020" r="1" fill="#F7F1E8" opacity="0.045"/>
  <circle cx="517" cy="1073" r="1" fill="#F7F1E8" opacity="0.045"/>
  <circle cx="614" cy="46" r="1" fill="#F7F1E8" opacity="0.045"/>
  <circle cx="711" cy="99" r="1" fill="#F7F1E8" opacity="0.045"/>
  <circle cx="808" cy="152" r="1" fill="#F7F1E8" opacity="0.045"/>
  <circle cx="905" cy="205" r="1" fill="#F7F1E8" opacity="0.045"/>
  <circle cx="1002" cy="258" r="1" fill="#F7F1E8" opacity="0.045"/>
  <circle cx="19" cy="311" r="1" fill="#F7F1E8" opacity="0.045"/>
  <circle cx="116" cy="364" r="1" fill="#F7F1E8" opacity="0.045"/>
  <circle cx="213" cy="417" r="1" fill="#F7F1E8" opacity="0.045"/>
  <circle cx="310" cy="470" r="1" fill="#F7F1E8" opacity="0.045"/>
  <circle cx="407" cy="523" r="1" fill="#F7F1E8" opacity="0.045"/>
  <circle cx="504" cy="576" r="1" fill="#F7F1E8" opacity="0.045"/>
  <circle cx="601" cy="629" r="1" fill="#F7F1E8" opacity="0.045"/>
  <circle cx="698" cy="682" r="1" fill="#F7F1E8" opacity="0.045"/>
  <circle cx="795" cy="735" r="1" fill="#F7F1E8" opacity="0.045"/>
  <circle cx="892" cy="788" r="1" fill="#F7F1E8" opacity="0.045"/>
  <circle cx="989" cy="841" r="1" fill="#F7F1E8" opacity="0.045"/>
  <circle cx="6" cy="894" r="1" fill="#F7F1E8" opacity="0.045"/>
  <circle cx="103" cy="947" r="1" fill="#F7F1E8" opacity="0.045"/>
  <circle cx="200" cy="1000" r="1" fill="#F7F1E8" opacity="0.045"/>
  <circle cx="297" cy="1053" r="1" fill="#F7F1E8" opacity="0.045"/>
  <circle cx="394" cy="26" r="1" fill="#F7F1E8" opacity="0.045"/>
  <circle cx="491" cy="79" r="1" fill="#F7F1E8" opacity="0.045"/>
  <circle cx="588" cy="132" r="1" fill="#F7F1E8" opacity="0.045"/>
  <circle cx="685" cy="185" r="1" fill="#F7F1E8" opacity="0.045"/>
  <circle cx="782" cy="238" r="1" fill="#F7F1E8" opacity="0.045"/>
  <circle cx="879" cy="291" r="1" fill="#F7F1E8" opacity="0.045"/>
  <circle cx="976" cy="344" r="1" fill="#F7F1E8" opacity="0.045"/>
  <circle cx="1073" cy="397" r="1" fill="#F7F1E8" opacity="0.045"/>

  <rect x="59" y="59" width="962" height="962" rx="0" fill="none" stroke="#B88A42" stroke-width="3" opacity="0.72"/>
  <line x1="94.4" y1="94.4" x2="985.6" y2="94.4" stroke="#F7F1E8" stroke-width="1" opacity="0.34"/>
  <line x1="94.4" y1="985.6" x2="985.6" y2="985.6" stroke="#F7F1E8" stroke-width="1" opacity="0.34"/>
  <text x="50%" y="165.2" text-anchor="middle" font-family="Arial, Helvetica, sans-serif" font-size="19" letter-spacing="9" fill="#B88A42">THE EARNALISM DIGITAL LIBRARY</text>
  <text x="50%" y="522.6" text-anchor="middle" font-family="Georgia, 'Times New Roman', serif" font-size="64" font-weight="500" fill="#F7F1E8">BEGIN WITH DRACULA</text>
  <text x="50%" y="598.9" text-anchor="middle" font-family="Georgia, 'Times New Roman', serif" font-size="29" font-style="italic" fill="#B88A42">Chapter 1 is free</text>
  <text x="50%" y="914.8" text-anchor="middle" font-family="Arial, Helvetica, sans-serif" font-size="19" letter-spacing="5" fill="#F7F1E8" opacity="0.78">READ BEAUTIFULLY. RETURN TO READING.</text>

</svg>
