<svg xmlns="http://www.w3.org/2000/svg" width="1080" height="1920" viewBox="0 0 1080 1920" role="img" aria-label="RETURN TO READING">
  <rect width="100%" height="100%" fill="#130D0C"/>
  <rect width="100%" height="100%" fill="#514742" opacity="0.09"/>
  <circle cx="97" cy="53" r="1" fill="#F7F1E8" opacity="0.045"/>
  <circle cx="194" cy="106" r="1" fill="#F7F1E8" opacity="0.045"/>
  <circle cx="291" cy="159" r="1" fill="#F7F1E8" opacity="0.045"/>
  <circle cx="388" cy="212" r="1" fill="#F7F1E8" opacity="0.045"/>
  <circle cx="485" cy="265" r="1" fill="#F7F1E8" opacity="0.045"/>
  <circle cx="582" cy="318" r="1" fill="#F7F1E8" opacity="0.045"/>
  <circle cx="679" cy="371" r="1" fill="#F7F1E8" opacity="0.045"/>
  <circle cx="776" cy="424" r="1" fill="#F7F1E8" opacity="0.045"/>
  <circle cx="873" cy="477" r="1" fill="#F7F1E8" opacity="0.045"/>
  <circle cx="970" cy="530" r="1" fill="#F7F1E8" opacity="0.045"/>
  <circle cx="1067" cy="583" r="1" fill="#F7F1E8" opacity="0.045"/>
  <circle cx="84" cy="636" r="1" fill="#F7F1E8" opacity="0.045"/>
  <circle cx="181" cy="689" r="1" fill="#F7F1E8" opacity="0.045"/>
  <circle cx="278" cy="742" r="1" fill="#F7F1E8" opacity="0.045"/>
  <circle cx="375" cy="795" r="1" fill="#F7F1E8" opacity="0.045"/>
  <circle cx="472" cy="848" r="1" fill="#F7F1E8" opacity="0.045"/>
  <circle cx="569" cy="901" r="1" fill="#F7F1E8" opacity="0.045"/>
  <circle cx="666" cy="954" r="1" fill="#F7F1E8" opacity="0.045"/>
  <circle cx="763" cy="1007" r="1" fill="#F7F1E8" opacity="0.045"/>
  <circle cx="860" cy="1060" r="1" fill="#F7F1E8" opacity="0.045"/>
  <circle cx="957" cy="1113" r="1" fill="#F7F1E8" opacity="0.045"/>
  <circle cx="1054" cy="1166" r="1" fill="#F7F1E8" opacity="0.045"/>
  <circle cx="71" cy="1219" r="1" fill="#F7F1E8" opacity="0.045"/>
  <circle cx="168" cy="1272" r="1" fill="#F7F1E8" opacity="0.045"/>
  <circle cx="265" cy="1325" r="1" fill="#F7F1E8" opacity="0.045"/>
  <circle cx="362" cy="1378" r="1" fill="#F7F1E8" opacity="0.045"/>
  <circle cx="459" cy="1431" r="1" fill="#F7F1E8" opacity="0.045"/>
  <circle cx="556" cy="1484" r="1" fill="#F7F1E8" opacity="0.045"/>
  <circle cx="653" cy="1537" r="1" fill="#F7F1E8" opacity="0.045"/>
  <circle cx="750" cy="1590" r="1" fill="#F7F1E8" opacity="0.045"/>
  <circle cx="847" cy="1643" r="1" fill="#F7F1E8" opacity="0.045"/>
  <circle cx="944" cy="1696" r="1" fill="#F7F1E8" opacity="0.045"/>
  <circle cx="1041" cy="1749" r="1" fill="#F7F1E8" opacity="0.045"/>
  <circle cx="58" cy="1802" r="1" fill="#F7F1E8" opacity="0.045"/>
  <circle cx="155" cy="1855" r="1" fill="#F7F1E8" opacity="0.045"/>
  <circle cx="252" cy="1908" r="1" fill="#F7F1E8" opacity="0.045"/>
  <circle cx="349" cy="41" r="1" fill="#F7F1E8" opacity="0.045"/>
  <circle cx="446" cy="94" r="1" fill="#F7F1E8" opacity="0.045"/>
  <circle cx="543" cy="147" r="1" fill="#F7F1E8" opacity="0.045"/>
  <circle cx="640" cy="200" r="1" fill="#F7F1E8" opacity="0.045"/>
  <circle cx="737" cy="253" r="1" fill="#F7F1E8" opacity="0.045"/>
  <circle cx="834" cy="306" r="1" fill="#F7F1E8" opacity="0.045"/>
  <circle cx="931" cy="359" r="1" fill="#F7F1E8" opacity="0.045"/>
  <circle cx="1028" cy="412" r="1" fill="#F7F1E8" opacity="0.045"/>
  <circle cx="45" cy="465" r="1" fill="#F7F1E8" opacity="0.045"/>
  <circle cx="142" cy="518" r="1" fill="#F7F1E8" opacity="0.045"/>
  <circle cx="239" cy="571" r="1" fill="#F7F1E8" opacity="0.045"/>
  <circle cx="336" cy="624" r="1" fill="#F7F1E8" opacity="0.045"/>
  <circle cx="433" cy="677" r="1" fill="#F7F1E8" opacity="0.045"/>
  <circle cx="530" cy="730" r="1" fill="#F7F1E8" opacity="0.045"/>
  <circle cx="627" cy="783" r="1" fill="#F7F1E8" opacity="0.045"/>
  <circle cx="724" cy="836" r="1" fill="#F7F1E8" opacity="0.045"/>
  <circle cx="821" cy="889" r="1" fill="#F7F1E8" opacity="0.045"/>
  <circle cx="918" cy="942" r="1" fill="#F7F1E8" opacity="0.045"/>
  <circle cx="1015" cy="995" r="1" fill="#F7F1E8" opacity="0.045"/>
  <circle cx="32" cy="1048" r="1" fill="#F7F1E8" opacity="0.045"/>
  <circle cx="129" cy="1101" r="1" fill="#F7F1E8" opacity="0.045"/>
  <circle cx="226" cy="1154" r="1" fill="#F7F1E8" opacity="0.045"/>
  <circle cx="323" cy="1207" r="1" fill="#F7F1E8" opacity="0.045"/>
  <circle cx="420" cy="1260" r="1" fill="#F7F1E8" opacity="0.045"/>
  <circle cx="517" cy="1313" r="1" fill="#F7F1E8" opacity="0.045"/>
  <circle cx="614" cy="1366" r="1" fill="#F7F1E8" opacity="0.045"/>
  <circle cx="711" cy="1419" r="1" fill="#F7F1E8" opacity="0.045"/>
  <circle cx="808" cy="1472" r="1" fill="#F7F1E8" opacity="0.045"/>
  <circle cx="905" cy="1525" r="1" fill="#F7F1E8" opacity="0.045"/>
  <circle cx="1002" cy="1578" r="1" fill="#F7F1E8" opacity="0.045"/>
  <circle cx="19" cy="1631" r="1" fill="#F7F1E8" opacity="0.045"/>
  <circle cx="116" cy="1684" r="1" fill="#F7F1E8" opacity="0.045"/>
  <circle cx="213" cy="1737" r="1" fill="#F7F1E8" opacity="0.045"/>
  <circle cx="310" cy="1790" r="1" fill="#F7F1E8" opacity="0.045"/>
  <circle cx="407" cy="1843" r="1" fill="#F7F1E8" opacity="0.045"/>
  <circle cx="504" cy="1896" r="1" fill="#F7F1E8" opacity="0.045"/>
  <circle cx="601" cy="29" r="1" fill="#F7F1E8" opacity="0.045"/>
  <circle cx="698" cy="82" r="1" fill="#F7F1E8" opacity="0.045"/>
  <circle cx="795" cy="135" r="1" fill="#F7F1E8" opacity="0.045"/>
  <circle cx="892" cy="188" r="1" fill="#F7F1E8" opacity="0.045"/>
  <circle cx="989" cy="241" r="1" fill="#F7F1E8" opacity="0.045"/>
  <circle cx="6" cy="294" r="1" fill="#F7F1E8" opacity="0.045"/>
  <circle cx="103" cy="347" r="1" fill="#F7F1E8" opacity="0.045"/>
  <circle cx="200" cy="400" r="1" fill="#F7F1E8" opacity="0.045"/>
  <circle cx="297" cy="453" r="1" fill="#F7F1E8" opacity="0.045"/>
  <circle cx="394" cy="506" r="1" fill="#F7F1E8" opacity="0.045"/>
  <circle cx="491" cy="559" r="1" fill="#F7F1E8" opacity="0.045"/>
  <circle cx="588" cy="612" r="1" fill="#F7F1E8" opacity="0.045"/>
  <circle cx="685" cy="665" r="1" fill="#F7F1E8" opacity="0.045"/>
  <circle cx="782" cy="718" r="1" fill="#F7F1E8" opacity="0.045"/>
  <circle cx="879" cy="771" r="1" fill="#F7F1E8" opacity="0.045"/>
  <circle cx="976" cy="824" r="1" fill="#F7F1E8" opacity="0.045"/>
  <circle cx="1073" cy="877" r="1" fill="#F7F1E8" opacity="0.045"/>

  <rect x="59" y="59" width="962" height="1802" rx="0" fill="none" stroke="#B88A42" stroke-width="3" opacity="0.72"/>
  <line x1="94.4" y1="94.4" x2="985.6" y2="94.4" stroke="#F7F1E8" stroke-width="1" opacity="0.34"/>
  <line x1="94.4" y1="1825.6" x2="985.6" y2="1825.6" stroke="#F7F1E8" stroke-width="1" opacity="0.34"/>
  <text x="50%" y="165.2" text-anchor="middle" font-family="Arial, Helvetica, sans-serif" font-size="19" letter-spacing="9" fill="#B88A42">THE EARNALISM DIGITAL LIBRARY</text>
  <text x="50%" y="942.6" text-anchor="middle" font-family="Georgia, 'Times New Roman', serif" font-size="81" font-weight="500" fill="#F7F1E8">RETURN TO READING</text>
  <text x="50%" y="1034.5" text-anchor="middle" font-family="Georgia, 'Times New Roman', serif" font-size="29" font-style="italic" fill="#B88A42">Dracula by Bram Stoker</text>
  <text x="50%" y="1754.8" text-anchor="middle" font-family="Arial, Helvetica, sans-serif" font-size="19" letter-spacing="5" fill="#F7F1E8" opacity="0.78">READ BEAUTIFULLY. RETURN TO READING.</text>

</svg>
