<svg xmlns="http://www.w3.org/2000/svg" width="1200" height="630" viewBox="0 0 1200 630" role="img" aria-label="JOURNAL">
  <rect width="100%" height="100%" fill="#130D0C"/>
  <rect width="100%" height="100%" fill="#514742" opacity="0.09"/>
  <circle cx="97" cy="53" r="1" fill="#F7F1E8" opacity="0.045"/>
  <circle cx="194" cy="106" r="1" fill="#F7F1E8" opacity="0.045"/>
  <circle cx="291" cy="159" r="1" fill="#F7F1E8" opacity="0.045"/>
  <circle cx="388" cy="212" r="1" fill="#F7F1E8" opacity="0.045"/>
  <circle cx="485" cy="265" r="1" fill="#F7F1E8" opacity="0.045"/>
  <circle cx="582" cy="318" r="1" fill="#F7F1E8" opacity="0.045"/>
  <circle cx="679" cy="371" r="1" fill="#F7F1E8" opacity="0.045"/>
  <circle cx="776" cy="424" r="1" fill="#F7F1E8" opacity="0.045"/>
  <circle cx="873" cy="477" r="1" fill="#F7F1E8" opacity="0.045"/>
  <circle cx="970" cy="530" r="1" fill="#F7F1E8" opacity="0.045"/>
  <circle cx="1067" cy="583" r="1" fill="#F7F1E8" opacity="0.045"/>
  <circle cx="1164" cy="6" r="1" fill="#F7F1E8" opacity="0.045"/>
  <circle cx="61" cy="59" r="1" fill="#F7F1E8" opacity="0.045"/>
  <circle cx="158" cy="112" r="1" fill="#F7F1E8" opacity="0.045"/>
  <circle cx="255" cy="165" r="1" fill="#F7F1E8" opacity="0.045"/>
  <circle cx="352" cy="218" r="1" fill="#F7F1E8" opacity="0.045"/>
  <circle cx="449" cy="271" r="1" fill="#F7F1E8" opacity="0.045"/>
  <circle cx="546" cy="324" r="1" fill="#F7F1E8" opacity="0.045"/>
  <circle cx="643" cy="377" r="1" fill="#F7F1E8" opacity="0.045"/>
  <circle cx="740" cy="430" r="1" fill="#F7F1E8" opacity="0.045"/>
  <circle cx="837" cy="483" r="1" fill="#F7F1E8" opacity="0.045"/>
  <circle cx="934" cy="536" r="1" fill="#F7F1E8" opacity="0.045"/>
  <circle cx="1031" cy="589" r="1" fill="#F7F1E8" opacity="0.045"/>
  <circle cx="1128" cy="12" r="1" fill="#F7F1E8" opacity="0.045"/>
  <circle cx="25" cy="65" r="1" fill="#F7F1E8" opacity="0.045"/>
  <circle cx="122" cy="118" r="1" fill="#F7F1E8" opacity="0.045"/>
  <circle cx="219" cy="171" r="1" fill="#F7F1E8" opacity="0.045"/>
  <circle cx="316" cy="224" r="1" fill="#F7F1E8" opacity="0.045"/>
  <circle cx="413" cy="277" r="1" fill="#F7F1E8" opacity="0.045"/>
  <circle cx="510" cy="330" r="1" fill="#F7F1E8" opacity="0.045"/>
  <circle cx="607" cy="383" r="1" fill="#F7F1E8" opacity="0.045"/>
  <circle cx="704" cy="436" r="1" fill="#F7F1E8" opacity="0.045"/>
  <circle cx="801" cy="489" r="1" fill="#F7F1E8" opacity="0.045"/>
  <circle cx="898" cy="542" r="1" fill="#F7F1E8" opacity="0.045"/>
  <circle cx="995" cy="595" r="1" fill="#F7F1E8" opacity="0.045"/>
  <circle cx="1092" cy="18" r="1" fill="#F7F1E8" opacity="0.045"/>
  <circle cx="1189" cy="71" r="1" fill="#F7F1E8" opacity="0.045"/>
  <circle cx="86" cy="124" r="1" fill="#F7F1E8" opacity="0.045"/>
  <circle cx="183" cy="177" r="1" fill="#F7F1E8" opacity="0.045"/>
  <circle cx="280" cy="230" r="1" fill="#F7F1E8" opacity="0.045"/>
  <circle cx="377" cy="283" r="1" fill="#F7F1E8" opacity="0.045"/>
  <circle cx="474" cy="336" r="1" fill="#F7F1E8" opacity="0.045"/>
  <circle cx="571" cy="389" r="1" fill="#F7F1E8" opacity="0.045"/>
  <circle cx="668" cy="442" r="1" fill="#F7F1E8" opacity="0.045"/>
  <circle cx="765" cy="495" r="1" fill="#F7F1E8" opacity="0.045"/>
  <circle cx="862" cy="548" r="1" fill="#F7F1E8" opacity="0.045"/>
  <circle cx="959" cy="601" r="1" fill="#F7F1E8" opacity="0.045"/>
  <circle cx="1056" cy="24" r="1" fill="#F7F1E8" opacity="0.045"/>
  <circle cx="1153" cy="77" r="1" fill="#F7F1E8" opacity="0.045"/>
  <circle cx="50" cy="130" r="1" fill="#F7F1E8" opacity="0.045"/>
  <circle cx="147" cy="183" r="1" fill="#F7F1E8" opacity="0.045"/>
  <circle cx="244" cy="236" r="1" fill="#F7F1E8" opacity="0.045"/>
  <circle cx="341" cy="289" r="1" fill="#F7F1E8" opacity="0.045"/>
  <circle cx="438" cy="342" r="1" fill="#F7F1E8" opacity="0.045"/>
  <circle cx="535" cy="395" r="1" fill="#F7F1E8" opacity="0.045"/>
  <circle cx="632" cy="448" r="1" fill="#F7F1E8" opacity="0.045"/>
  <circle cx="729" cy="501" r="1" fill="#F7F1E8" opacity="0.045"/>
  <circle cx="826" cy="554" r="1" fill="#F7F1E8" opacity="0.045"/>
  <circle cx="923" cy="607" r="1" fill="#F7F1E8" opacity="0.045"/>
  <circle cx="1020" cy="30" r="1" fill="#F7F1E8" opacity="0.045"/>
  <circle cx="1117" cy="83" r="1" fill="#F7F1E8" opacity="0.045"/>
  <circle cx="14" cy="136" r="1" fill="#F7F1E8" opacity="0.045"/>
  <circle cx="111" cy="189" r="1" fill="#F7F1E8" opacity="0.045"/>
  <circle cx="208" cy="242" r="1" fill="#F7F1E8" opacity="0.045"/>
  <circle cx="305" cy="295" r="1" fill="#F7F1E8" opacity="0.045"/>
  <circle cx="402" cy="348" r="1" fill="#F7F1E8" opacity="0.045"/>
  <circle cx="499" cy="401" r="1" fill="#F7F1E8" opacity="0.045"/>
  <circle cx="596" cy="454" r="1" fill="#F7F1E8" opacity="0.045"/>
  <circle cx="693" cy="507" r="1" fill="#F7F1E8" opacity="0.045"/>
  <circle cx="790" cy="560" r="1" fill="#F7F1E8" opacity="0.045"/>
  <circle cx="887" cy="613" r="1" fill="#F7F1E8" opacity="0.045"/>
  <circle cx="984" cy="36" r="1" fill="#F7F1E8" opacity="0.045"/>
  <circle cx="1081" cy="89" r="1" fill="#F7F1E8" opacity="0.045"/>
  <circle cx="1178" cy="142" r="1" fill="#F7F1E8" opacity="0.045"/>
  <circle cx="75" cy="195" r="1" fill="#F7F1E8" opacity="0.045"/>
  <circle cx="172" cy="248" r="1" fill="#F7F1E8" opacity="0.045"/>
  <circle cx="269" cy="301" r="1" fill="#F7F1E8" opacity="0.045"/>
  <circle cx="366" cy="354" r="1" fill="#F7F1E8" opacity="0.045"/>
  <circle cx="463" cy="407" r="1" fill="#F7F1E8" opacity="0.045"/>
  <circle cx="560" cy="460" r="1" fill="#F7F1E8" opacity="0.045"/>
  <circle cx="657" cy="513" r="1" fill="#F7F1E8" opacity="0.045"/>
  <circle cx="754" cy="566" r="1" fill="#F7F1E8" opacity="0.045"/>
  <circle cx="851" cy="619" r="1" fill="#F7F1E8" opacity="0.045"/>
  <circle cx="948" cy="42" r="1" fill="#F7F1E8" opacity="0.045"/>
  <circle cx="1045" cy="95" r="1" fill="#F7F1E8" opacity="0.045"/>
  <circle cx="1142" cy="148" r="1" fill="#F7F1E8" opacity="0.045"/>
  <circle cx="39" cy="201" r="1" fill="#F7F1E8" opacity="0.045"/>
  <circle cx="136" cy="254" r="1" fill="#F7F1E8" opacity="0.045"/>
  <circle cx="233" cy="307" r="1" fill="#F7F1E8" opacity="0.045"/>

  <rect x="34" y="34" width="1132" height="562" rx="0" fill="none" stroke="#B88A42" stroke-width="3" opacity="0.72"/>
  <line x1="54.400000000000006" y1="54.400000000000006" x2="1145.6" y2="54.400000000000006" stroke="#F7F1E8" stroke-width="1" opacity="0.34"/>
  <line x1="54.400000000000006" y1="575.6" x2="1145.6" y2="575.6" stroke="#F7F1E8" stroke-width="1" opacity="0.34"/>
  <text x="50%" y="95.2" text-anchor="middle" font-family="Arial, Helvetica, sans-serif" font-size="15" letter-spacing="9" fill="#B88A42">THE EARNALISM DIGITAL LIBRARY</text>
  <text x="50%" y="304.2" text-anchor="middle" font-family="Georgia, 'Times New Roman', serif" font-size="37" font-weight="500" fill="#F7F1E8">JOURNAL</text>
  <text x="50%" y="349.0" text-anchor="middle" font-family="Georgia, 'Times New Roman', serif" font-size="18" font-style="italic" fill="#B88A42">Notes from the reading room</text>
  <text x="50%" y="534.8" text-anchor="middle" font-family="Arial, Helvetica, sans-serif" font-size="15" letter-spacing="5" fill="#F7F1E8" opacity="0.78">READ BEAUTIFULLY. RETURN TO READING.</text>

</svg>
