<svg xmlns="http://www.w3.org/2000/svg" width="1500" height="500" viewBox="0 0 1500 500" role="img" aria-label="READ BEAUTIFULLY">
  <rect width="100%" height="100%" fill="#130D0C"/>
  <rect width="100%" height="100%" fill="#514742" opacity="0.09"/>
  <circle cx="97" cy="53" r="1" fill="#F7F1E8" opacity="0.045"/>
  <circle cx="194" cy="106" r="1" fill="#F7F1E8" opacity="0.045"/>
  <circle cx="291" cy="159" r="1" fill="#F7F1E8" opacity="0.045"/>
  <circle cx="388" cy="212" r="1" fill="#F7F1E8" opacity="0.045"/>
  <circle cx="485" cy="265" r="1" fill="#F7F1E8" opacity="0.045"/>
  <circle cx="582" cy="318" r="1" fill="#F7F1E8" opacity="0.045"/>
  <circle cx="679" cy="371" r="1" fill="#F7F1E8" opacity="0.045"/>
  <circle cx="776" cy="424" r="1" fill="#F7F1E8" opacity="0.045"/>
  <circle cx="873" cy="477" r="1" fill="#F7F1E8" opacity="0.045"/>
  <circle cx="970" cy="30" r="1" fill="#F7F1E8" opacity="0.045"/>
  <circle cx="1067" cy="83" r="1" fill="#F7F1E8" opacity="0.045"/>
  <circle cx="1164" cy="136" r="1" fill="#F7F1E8" opacity="0.045"/>
  <circle cx="1261" cy="189" r="1" fill="#F7F1E8" opacity="0.045"/>
  <circle cx="1358" cy="242" r="1" fill="#F7F1E8" opacity="0.045"/>
  <circle cx="1455" cy="295" r="1" fill="#F7F1E8" opacity="0.045"/>
  <circle cx="52" cy="348" r="1" fill="#F7F1E8" opacity="0.045"/>
  <circle cx="149" cy="401" r="1" fill="#F7F1E8" opacity="0.045"/>
  <circle cx="246" cy="454" r="1" fill="#F7F1E8" opacity="0.045"/>
  <circle cx="343" cy="7" r="1" fill="#F7F1E8" opacity="0.045"/>
  <circle cx="440" cy="60" r="1" fill="#F7F1E8" opacity="0.045"/>
  <circle cx="537" cy="113" r="1" fill="#F7F1E8" opacity="0.045"/>
  <circle cx="634" cy="166" r="1" fill="#F7F1E8" opacity="0.045"/>
  <circle cx="731" cy="219" r="1" fill="#F7F1E8" opacity="0.045"/>
  <circle cx="828" cy="272" r="1" fill="#F7F1E8" opacity="0.045"/>
  <circle cx="925" cy="325" r="1" fill="#F7F1E8" opacity="0.045"/>
  <circle cx="1022" cy="378" r="1" fill="#F7F1E8" opacity="0.045"/>
  <circle cx="1119" cy="431" r="1" fill="#F7F1E8" opacity="0.045"/>
  <circle cx="1216" cy="484" r="1" fill="#F7F1E8" opacity="0.045"/>
  <circle cx="1313" cy="37" r="1" fill="#F7F1E8" opacity="0.045"/>
  <circle cx="1410" cy="90" r="1" fill="#F7F1E8" opacity="0.045"/>
  <circle cx="7" cy="143" r="1" fill="#F7F1E8" opacity="0.045"/>
  <circle cx="104" cy="196" r="1" fill="#F7F1E8" opacity="0.045"/>
  <circle cx="201" cy="249" r="1" fill="#F7F1E8" opacity="0.045"/>
  <circle cx="298" cy="302" r="1" fill="#F7F1E8" opacity="0.045"/>
  <circle cx="395" cy="355" r="1" fill="#F7F1E8" opacity="0.045"/>
  <circle cx="492" cy="408" r="1" fill="#F7F1E8" opacity="0.045"/>
  <circle cx="589" cy="461" r="1" fill="#F7F1E8" opacity="0.045"/>
  <circle cx="686" cy="14" r="1" fill="#F7F1E8" opacity="0.045"/>
  <circle cx="783" cy="67" r="1" fill="#F7F1E8" opacity="0.045"/>
  <circle cx="880" cy="120" r="1" fill="#F7F1E8" opacity="0.045"/>
  <circle cx="977" cy="173" r="1" fill="#F7F1E8" opacity="0.045"/>
  <circle cx="1074" cy="226" r="1" fill="#F7F1E8" opacity="0.045"/>
  <circle cx="1171" cy="279" r="1" fill="#F7F1E8" opacity="0.045"/>
  <circle cx="1268" cy="332" r="1" fill="#F7F1E8" opacity="0.045"/>
  <circle cx="1365" cy="385" r="1" fill="#F7F1E8" opacity="0.045"/>
  <circle cx="1462" cy="438" r="1" fill="#F7F1E8" opacity="0.045"/>
  <circle cx="59" cy="491" r="1" fill="#F7F1E8" opacity="0.045"/>
  <circle cx="156" cy="44" r="1" fill="#F7F1E8" opacity="0.045"/>
  <circle cx="253" cy="97" r="1" fill="#F7F1E8" opacity="0.045"/>
  <circle cx="350" cy="150" r="1" fill="#F7F1E8" opacity="0.045"/>
  <circle cx="447" cy="203" r="1" fill="#F7F1E8" opacity="0.045"/>
  <circle cx="544" cy="256" r="1" fill="#F7F1E8" opacity="0.045"/>
  <circle cx="641" cy="309" r="1" fill="#F7F1E8" opacity="0.045"/>
  <circle cx="738" cy="362" r="1" fill="#F7F1E8" opacity="0.045"/>
  <circle cx="835" cy="415" r="1" fill="#F7F1E8" opacity="0.045"/>
  <circle cx="932" cy="468" r="1" fill="#F7F1E8" opacity="0.045"/>
  <circle cx="1029" cy="21" r="1" fill="#F7F1E8" opacity="0.045"/>
  <circle cx="1126" cy="74" r="1" fill="#F7F1E8" opacity="0.045"/>
  <circle cx="1223" cy="127" r="1" fill="#F7F1E8" opacity="0.045"/>
  <circle cx="1320" cy="180" r="1" fill="#F7F1E8" opacity="0.045"/>
  <circle cx="1417" cy="233" r="1" fill="#F7F1E8" opacity="0.045"/>
  <circle cx="14" cy="286" r="1" fill="#F7F1E8" opacity="0.045"/>
  <circle cx="111" cy="339" r="1" fill="#F7F1E8" opacity="0.045"/>
  <circle cx="208" cy="392" r="1" fill="#F7F1E8" opacity="0.045"/>
  <circle cx="305" cy="445" r="1" fill="#F7F1E8" opacity="0.045"/>
  <circle cx="402" cy="498" r="1" fill="#F7F1E8" opacity="0.045"/>
  <circle cx="499" cy="51" r="1" fill="#F7F1E8" opacity="0.045"/>
  <circle cx="596" cy="104" r="1" fill="#F7F1E8" opacity="0.045"/>
  <circle cx="693" cy="157" r="1" fill="#F7F1E8" opacity="0.045"/>
  <circle cx="790" cy="210" r="1" fill="#F7F1E8" opacity="0.045"/>
  <circle cx="887" cy="263" r="1" fill="#F7F1E8" opacity="0.045"/>
  <circle cx="984" cy="316" r="1" fill="#F7F1E8" opacity="0.045"/>
  <circle cx="1081" cy="369" r="1" fill="#F7F1E8" opacity="0.045"/>
  <circle cx="1178" cy="422" r="1" fill="#F7F1E8" opacity="0.045"/>
  <circle cx="1275" cy="475" r="1" fill="#F7F1E8" opacity="0.045"/>
  <circle cx="1372" cy="28" r="1" fill="#F7F1E8" opacity="0.045"/>
  <circle cx="1469" cy="81" r="1" fill="#F7F1E8" opacity="0.045"/>
  <circle cx="66" cy="134" r="1" fill="#F7F1E8" opacity="0.045"/>
  <circle cx="163" cy="187" r="1" fill="#F7F1E8" opacity="0.045"/>
  <circle cx="260" cy="240" r="1" fill="#F7F1E8" opacity="0.045"/>
  <circle cx="357" cy="293" r="1" fill="#F7F1E8" opacity="0.045"/>
  <circle cx="454" cy="346" r="1" fill="#F7F1E8" opacity="0.045"/>
  <circle cx="551" cy="399" r="1" fill="#F7F1E8" opacity="0.045"/>
  <circle cx="648" cy="452" r="1" fill="#F7F1E8" opacity="0.045"/>
  <circle cx="745" cy="5" r="1" fill="#F7F1E8" opacity="0.045"/>
  <circle cx="842" cy="58" r="1" fill="#F7F1E8" opacity="0.045"/>
  <circle cx="939" cy="111" r="1" fill="#F7F1E8" opacity="0.045"/>
  <circle cx="1036" cy="164" r="1" fill="#F7F1E8" opacity="0.045"/>
  <circle cx="1133" cy="217" r="1" fill="#F7F1E8" opacity="0.045"/>

  <rect x="27" y="27" width="1446" height="446" rx="0" fill="none" stroke="#B88A42" stroke-width="3" opacity="0.72"/>
  <line x1="43.2" y1="43.2" x2="1456.8" y2="43.2" stroke="#F7F1E8" stroke-width="1" opacity="0.34"/>
  <line x1="43.2" y1="456.8" x2="1456.8" y2="456.8" stroke="#F7F1E8" stroke-width="1" opacity="0.34"/>
  <text x="50%" y="75.6" text-anchor="middle" font-family="Arial, Helvetica, sans-serif" font-size="15" letter-spacing="9" fill="#B88A42">THE EARNALISM DIGITAL LIBRARY</text>
  <text x="50%" y="239.2" text-anchor="middle" font-family="Georgia, 'Times New Roman', serif" font-size="34" font-weight="500" fill="#F7F1E8">READ BEAUTIFULLY</text>
  <text x="50%" y="281.3" text-anchor="middle" font-family="Georgia, 'Times New Roman', serif" font-size="18" font-style="italic" fill="#B88A42">The Earnalism begins with Dracula</text>
  <text x="50%" y="424.4" text-anchor="middle" font-family="Arial, Helvetica, sans-serif" font-size="15" letter-spacing="5" fill="#F7F1E8" opacity="0.78">READ BEAUTIFULLY. RETURN TO READING.</text>

</svg>
