<svg xmlns="http://www.w3.org/2000/svg" width="2560" height="1440" viewBox="0 0 2560 1440" role="img" aria-label="BEGIN WITH DRACULA">
  <rect width="100%" height="100%" fill="#130D0C"/>
  <rect width="100%" height="100%" fill="#514742" opacity="0.09"/>
  <circle cx="97" cy="53" r="1" fill="#F7F1E8" opacity="0.045"/>
  <circle cx="194" cy="106" r="1" fill="#F7F1E8" opacity="0.045"/>
  <circle cx="291" cy="159" r="1" fill="#F7F1E8" opacity="0.045"/>
  <circle cx="388" cy="212" r="1" fill="#F7F1E8" opacity="0.045"/>
  <circle cx="485" cy="265" r="1" fill="#F7F1E8" opacity="0.045"/>
  <circle cx="582" cy="318" r="1" fill="#F7F1E8" opacity="0.045"/>
  <circle cx="679" cy="371" r="1" fill="#F7F1E8" opacity="0.045"/>
  <circle cx="776" cy="424" r="1" fill="#F7F1E8" opacity="0.045"/>
  <circle cx="873" cy="477" r="1" fill="#F7F1E8" opacity="0.045"/>
  <circle cx="970" cy="530" r="1" fill="#F7F1E8" opacity="0.045"/>
  <circle cx="1067" cy="583" r="1" fill="#F7F1E8" opacity="0.045"/>
  <circle cx="1164" cy="636" r="1" fill="#F7F1E8" opacity="0.045"/>
  <circle cx="1261" cy="689" r="1" fill="#F7F1E8" opacity="0.045"/>
  <circle cx="1358" cy="742" r="1" fill="#F7F1E8" opacity="0.045"/>
  <circle cx="1455" cy="795" r="1" fill="#F7F1E8" opacity="0.045"/>
  <circle cx="1552" cy="848" r="1" fill="#F7F1E8" opacity="0.045"/>
  <circle cx="1649" cy="901" r="1" fill="#F7F1E8" opacity="0.045"/>
  <circle cx="1746" cy="954" r="1" fill="#F7F1E8" opacity="0.045"/>
  <circle cx="1843" cy="1007" r="1" fill="#F7F1E8" opacity="0.045"/>
  <circle cx="1940" cy="1060" r="1" fill="#F7F1E8" opacity="0.045"/>
  <circle cx="2037" cy="1113" r="1" fill="#F7F1E8" opacity="0.045"/>
  <circle cx="2134" cy="1166" r="1" fill="#F7F1E8" opacity="0.045"/>
  <circle cx="2231" cy="1219" r="1" fill="#F7F1E8" opacity="0.045"/>
  <circle cx="2328" cy="1272" r="1" fill="#F7F1E8" opacity="0.045"/>
  <circle cx="2425" cy="1325" r="1" fill="#F7F1E8" opacity="0.045"/>
  <circle cx="2522" cy="1378" r="1" fill="#F7F1E8" opacity="0.045"/>
  <circle cx="59" cy="1431" r="1" fill="#F7F1E8" opacity="0.045"/>
  <circle cx="156" cy="44" r="1" fill="#F7F1E8" opacity="0.045"/>
  <circle cx="253" cy="97" r="1" fill="#F7F1E8" opacity="0.045"/>
  <circle cx="350" cy="150" r="1" fill="#F7F1E8" opacity="0.045"/>
  <circle cx="447" cy="203" r="1" fill="#F7F1E8" opacity="0.045"/>
  <circle cx="544" cy="256" r="1" fill="#F7F1E8" opacity="0.045"/>
  <circle cx="641" cy="309" r="1" fill="#F7F1E8" opacity="0.045"/>
  <circle cx="738" cy="362" r="1" fill="#F7F1E8" opacity="0.045"/>
  <circle cx="835" cy="415" r="1" fill="#F7F1E8" opacity="0.045"/>
  <circle cx="932" cy="468" r="1" fill="#F7F1E8" opacity="0.045"/>
  <circle cx="1029" cy="521" r="1" fill="#F7F1E8" opacity="0.045"/>
  <circle cx="1126" cy="574" r="1" fill="#F7F1E8" opacity="0.045"/>
  <circle cx="1223" cy="627" r="1" fill="#F7F1E8" opacity="0.045"/>
  <circle cx="1320" cy="680" r="1" fill="#F7F1E8" opacity="0.045"/>
  <circle cx="1417" cy="733" r="1" fill="#F7F1E8" opacity="0.045"/>
  <circle cx="1514" cy="786" r="1" fill="#F7F1E8" opacity="0.045"/>
  <circle cx="1611" cy="839" r="1" fill="#F7F1E8" opacity="0.045"/>
  <circle cx="1708" cy="892" r="1" fill="#F7F1E8" opacity="0.045"/>
  <circle cx="1805" cy="945" r="1" fill="#F7F1E8" opacity="0.045"/>
  <circle cx="1902" cy="998" r="1" fill="#F7F1E8" opacity="0.045"/>
  <circle cx="1999" cy="1051" r="1" fill="#F7F1E8" opacity="0.045"/>
  <circle cx="2096" cy="1104" r="1" fill="#F7F1E8" opacity="0.045"/>
  <circle cx="2193" cy="1157" r="1" fill="#F7F1E8" opacity="0.045"/>
  <circle cx="2290" cy="1210" r="1" fill="#F7F1E8" opacity="0.045"/>
  <circle cx="2387" cy="1263" r="1" fill="#F7F1E8" opacity="0.045"/>
  <circle cx="2484" cy="1316" r="1" fill="#F7F1E8" opacity="0.045"/>
  <circle cx="21" cy="1369" r="1" fill="#F7F1E8" opacity="0.045"/>
  <circle cx="118" cy="1422" r="1" fill="#F7F1E8" opacity="0.045"/>
  <circle cx="215" cy="35" r="1" fill="#F7F1E8" opacity="0.045"/>
  <circle cx="312" cy="88" r="1" fill="#F7F1E8" opacity="0.045"/>
  <circle cx="409" cy="141" r="1" fill="#F7F1E8" opacity="0.045"/>
  <circle cx="506" cy="194" r="1" fill="#F7F1E8" opacity="0.045"/>
  <circle cx="603" cy="247" r="1" fill="#F7F1E8" opacity="0.045"/>
  <circle cx="700" cy="300" r="1" fill="#F7F1E8" opacity="0.045"/>
  <circle cx="797" cy="353" r="1" fill="#F7F1E8" opacity="0.045"/>
  <circle cx="894" cy="406" r="1" fill="#F7F1E8" opacity="0.045"/>
  <circle cx="991" cy="459" r="1" fill="#F7F1E8" opacity="0.045"/>
  <circle cx="1088" cy="512" r="1" fill="#F7F1E8" opacity="0.045"/>
  <circle cx="1185" cy="565" r="1" fill="#F7F1E8" opacity="0.045"/>
  <circle cx="1282" cy="618" r="1" fill="#F7F1E8" opacity="0.045"/>
  <circle cx="1379" cy="671" r="1" fill="#F7F1E8" opacity="0.045"/>
  <circle cx="1476" cy="724" r="1" fill="#F7F1E8" opacity="0.045"/>
  <circle cx="1573" cy="777" r="1" fill="#F7F1E8" opacity="0.045"/>
  <circle cx="1670" cy="830" r="1" fill="#F7F1E8" opacity="0.045"/>
  <circle cx="1767" cy="883" r="1" fill="#F7F1E8" opacity="0.045"/>
  <circle cx="1864" cy="936" r="1" fill="#F7F1E8" opacity="0.045"/>
  <circle cx="1961" cy="989" r="1" fill="#F7F1E8" opacity="0.045"/>
  <circle cx="2058" cy="1042" r="1" fill="#F7F1E8" opacity="0.045"/>
  <circle cx="2155" cy="1095" r="1" fill="#F7F1E8" opacity="0.045"/>
  <circle cx="2252" cy="1148" r="1" fill="#F7F1E8" opacity="0.045"/>
  <circle cx="2349" cy="1201" r="1" fill="#F7F1E8" opacity="0.045"/>
  <circle cx="2446" cy="1254" r="1" fill="#F7F1E8" opacity="0.045"/>
  <circle cx="2543" cy="1307" r="1" fill="#F7F1E8" opacity="0.045"/>
  <circle cx="80" cy="1360" r="1" fill="#F7F1E8" opacity="0.045"/>
  <circle cx="177" cy="1413" r="1" fill="#F7F1E8" opacity="0.045"/>
  <circle cx="274" cy="26" r="1" fill="#F7F1E8" opacity="0.045"/>
  <circle cx="371" cy="79" r="1" fill="#F7F1E8" opacity="0.045"/>
  <circle cx="468" cy="132" r="1" fill="#F7F1E8" opacity="0.045"/>
  <circle cx="565" cy="185" r="1" fill="#F7F1E8" opacity="0.045"/>
  <circle cx="662" cy="238" r="1" fill="#F7F1E8" opacity="0.045"/>
  <circle cx="759" cy="291" r="1" fill="#F7F1E8" opacity="0.045"/>
  <circle cx="856" cy="344" r="1" fill="#F7F1E8" opacity="0.045"/>
  <circle cx="953" cy="397" r="1" fill="#F7F1E8" opacity="0.045"/>

  <rect x="79" y="79" width="2402" height="1282" rx="0" fill="none" stroke="#B88A42" stroke-width="3" opacity="0.72"/>
  <line x1="126.4" y1="126.4" x2="2433.6" y2="126.4" stroke="#F7F1E8" stroke-width="1" opacity="0.34"/>
  <line x1="126.4" y1="1313.6" x2="2433.6" y2="1313.6" stroke="#F7F1E8" stroke-width="1" opacity="0.34"/>
  <text x="50%" y="221.2" text-anchor="middle" font-family="Arial, Helvetica, sans-serif" font-size="25" letter-spacing="9" fill="#B88A42">THE EARNALISM DIGITAL LIBRARY</text>
  <text x="50%" y="697.2" text-anchor="middle" font-family="Georgia, 'Times New Roman', serif" font-size="86" font-weight="500" fill="#F7F1E8">BEGIN WITH DRACULA</text>
  <text x="50%" y="799.1" text-anchor="middle" font-family="Georgia, 'Times New Roman', serif" font-size="38" font-style="italic" fill="#B88A42">A quiet digital reading room</text>
  <text x="50%" y="1218.8" text-anchor="middle" font-family="Arial, Helvetica, sans-serif" font-size="25" letter-spacing="5" fill="#F7F1E8" opacity="0.78">READ BEAUTIFULLY. RETURN TO READING.</text>

</svg>
