<svg xmlns="http://www.w3.org/2000/svg" width="1584" height="396" viewBox="0 0 1584 396" role="img" aria-label="THE EARNALISM DIGITAL LIBRARY">
  <rect width="100%" height="100%" fill="#130D0C"/>
  <rect width="100%" height="100%" fill="#514742" opacity="0.09"/>
  <circle cx="97" cy="53" r="1" fill="#F7F1E8" opacity="0.045"/>
  <circle cx="194" cy="106" r="1" fill="#F7F1E8" opacity="0.045"/>
  <circle cx="291" cy="159" r="1" fill="#F7F1E8" opacity="0.045"/>
  <circle cx="388" cy="212" r="1" fill="#F7F1E8" opacity="0.045"/>
  <circle cx="485" cy="265" r="1" fill="#F7F1E8" opacity="0.045"/>
  <circle cx="582" cy="318" r="1" fill="#F7F1E8" opacity="0.045"/>
  <circle cx="679" cy="371" r="1" fill="#F7F1E8" opacity="0.045"/>
  <circle cx="776" cy="28" r="1" fill="#F7F1E8" opacity="0.045"/>
  <circle cx="873" cy="81" r="1" fill="#F7F1E8" opacity="0.045"/>
  <circle cx="970" cy="134" r="1" fill="#F7F1E8" opacity="0.045"/>
  <circle cx="1067" cy="187" r="1" fill="#F7F1E8" opacity="0.045"/>
  <circle cx="1164" cy="240" r="1" fill="#F7F1E8" opacity="0.045"/>
  <circle cx="1261" cy="293" r="1" fill="#F7F1E8" opacity="0.045"/>
  <circle cx="1358" cy="346" r="1" fill="#F7F1E8" opacity="0.045"/>
  <circle cx="1455" cy="3" r="1" fill="#F7F1E8" opacity="0.045"/>
  <circle cx="1552" cy="56" r="1" fill="#F7F1E8" opacity="0.045"/>
  <circle cx="65" cy="109" r="1" fill="#F7F1E8" opacity="0.045"/>
  <circle cx="162" cy="162" r="1" fill="#F7F1E8" opacity="0.045"/>
  <circle cx="259" cy="215" r="1" fill="#F7F1E8" opacity="0.045"/>
  <circle cx="356" cy="268" r="1" fill="#F7F1E8" opacity="0.045"/>
  <circle cx="453" cy="321" r="1" fill="#F7F1E8" opacity="0.045"/>
  <circle cx="550" cy="374" r="1" fill="#F7F1E8" opacity="0.045"/>
  <circle cx="647" cy="31" r="1" fill="#F7F1E8" opacity="0.045"/>
  <circle cx="744" cy="84" r="1" fill="#F7F1E8" opacity="0.045"/>
  <circle cx="841" cy="137" r="1" fill="#F7F1E8" opacity="0.045"/>
  <circle cx="938" cy="190" r="1" fill="#F7F1E8" opacity="0.045"/>
  <circle cx="1035" cy="243" r="1" fill="#F7F1E8" opacity="0.045"/>
  <circle cx="1132" cy="296" r="1" fill="#F7F1E8" opacity="0.045"/>
  <circle cx="1229" cy="349" r="1" fill="#F7F1E8" opacity="0.045"/>
  <circle cx="1326" cy="6" r="1" fill="#F7F1E8" opacity="0.045"/>
  <circle cx="1423" cy="59" r="1" fill="#F7F1E8" opacity="0.045"/>
  <circle cx="1520" cy="112" r="1" fill="#F7F1E8" opacity="0.045"/>
  <circle cx="33" cy="165" r="1" fill="#F7F1E8" opacity="0.045"/>
  <circle cx="130" cy="218" r="1" fill="#F7F1E8" opacity="0.045"/>
  <circle cx="227" cy="271" r="1" fill="#F7F1E8" opacity="0.045"/>
  <circle cx="324" cy="324" r="1" fill="#F7F1E8" opacity="0.045"/>
  <circle cx="421" cy="377" r="1" fill="#F7F1E8" opacity="0.045"/>
  <circle cx="518" cy="34" r="1" fill="#F7F1E8" opacity="0.045"/>
  <circle cx="615" cy="87" r="1" fill="#F7F1E8" opacity="0.045"/>
  <circle cx="712" cy="140" r="1" fill="#F7F1E8" opacity="0.045"/>
  <circle cx="809" cy="193" r="1" fill="#F7F1E8" opacity="0.045"/>
  <circle cx="906" cy="246" r="1" fill="#F7F1E8" opacity="0.045"/>
  <circle cx="1003" cy="299" r="1" fill="#F7F1E8" opacity="0.045"/>
  <circle cx="1100" cy="352" r="1" fill="#F7F1E8" opacity="0.045"/>
  <circle cx="1197" cy="9" r="1" fill="#F7F1E8" opacity="0.045"/>
  <circle cx="1294" cy="62" r="1" fill="#F7F1E8" opacity="0.045"/>
  <circle cx="1391" cy="115" r="1" fill="#F7F1E8" opacity="0.045"/>
  <circle cx="1488" cy="168" r="1" fill="#F7F1E8" opacity="0.045"/>
  <circle cx="1" cy="221" r="1" fill="#F7F1E8" opacity="0.045"/>
  <circle cx="98" cy="274" r="1" fill="#F7F1E8" opacity="0.045"/>
  <circle cx="195" cy="327" r="1" fill="#F7F1E8" opacity="0.045"/>
  <circle cx="292" cy="380" r="1" fill="#F7F1E8" opacity="0.045"/>
  <circle cx="389" cy="37" r="1" fill="#F7F1E8" opacity="0.045"/>
  <circle cx="486" cy="90" r="1" fill="#F7F1E8" opacity="0.045"/>
  <circle cx="583" cy="143" r="1" fill="#F7F1E8" opacity="0.045"/>
  <circle cx="680" cy="196" r="1" fill="#F7F1E8" opacity="0.045"/>
  <circle cx="777" cy="249" r="1" fill="#F7F1E8" opacity="0.045"/>
  <circle cx="874" cy="302" r="1" fill="#F7F1E8" opacity="0.045"/>
  <circle cx="971" cy="355" r="1" fill="#F7F1E8" opacity="0.045"/>
  <circle cx="1068" cy="12" r="1" fill="#F7F1E8" opacity="0.045"/>
  <circle cx="1165" cy="65" r="1" fill="#F7F1E8" opacity="0.045"/>
  <circle cx="1262" cy="118" r="1" fill="#F7F1E8" opacity="0.045"/>
  <circle cx="1359" cy="171" r="1" fill="#F7F1E8" opacity="0.045"/>
  <circle cx="1456" cy="224" r="1" fill="#F7F1E8" opacity="0.045"/>
  <circle cx="1553" cy="277" r="1" fill="#F7F1E8" opacity="0.045"/>
  <circle cx="66" cy="330" r="1" fill="#F7F1E8" opacity="0.045"/>
  <circle cx="163" cy="383" r="1" fill="#F7F1E8" opacity="0.045"/>
  <circle cx="260" cy="40" r="1" fill="#F7F1E8" opacity="0.045"/>
  <circle cx="357" cy="93" r="1" fill="#F7F1E8" opacity="0.045"/>
  <circle cx="454" cy="146" r="1" fill="#F7F1E8" opacity="0.045"/>
  <circle cx="551" cy="199" r="1" fill="#F7F1E8" opacity="0.045"/>
  <circle cx="648" cy="252" r="1" fill="#F7F1E8" opacity="0.045"/>
  <circle cx="745" cy="305" r="1" fill="#F7F1E8" opacity="0.045"/>
  <circle cx="842" cy="358" r="1" fill="#F7F1E8" opacity="0.045"/>
  <circle cx="939" cy="15" r="1" fill="#F7F1E8" opacity="0.045"/>
  <circle cx="1036" cy="68" r="1" fill="#F7F1E8" opacity="0.045"/>
  <circle cx="1133" cy="121" r="1" fill="#F7F1E8" opacity="0.045"/>
  <circle cx="1230" cy="174" r="1" fill="#F7F1E8" opacity="0.045"/>
  <circle cx="1327" cy="227" r="1" fill="#F7F1E8" opacity="0.045"/>
  <circle cx="1424" cy="280" r="1" fill="#F7F1E8" opacity="0.045"/>
  <circle cx="1521" cy="333" r="1" fill="#F7F1E8" opacity="0.045"/>
  <circle cx="34" cy="386" r="1" fill="#F7F1E8" opacity="0.045"/>
  <circle cx="131" cy="43" r="1" fill="#F7F1E8" opacity="0.045"/>
  <circle cx="228" cy="96" r="1" fill="#F7F1E8" opacity="0.045"/>
  <circle cx="325" cy="149" r="1" fill="#F7F1E8" opacity="0.045"/>
  <circle cx="422" cy="202" r="1" fill="#F7F1E8" opacity="0.045"/>
  <circle cx="519" cy="255" r="1" fill="#F7F1E8" opacity="0.045"/>
  <circle cx="616" cy="308" r="1" fill="#F7F1E8" opacity="0.045"/>
  <circle cx="713" cy="361" r="1" fill="#F7F1E8" opacity="0.045"/>

  <rect x="24" y="24" width="1536" height="348" rx="0" fill="none" stroke="#B88A42" stroke-width="3" opacity="0.72"/>
  <line x1="38.400000000000006" y1="38.400000000000006" x2="1545.6" y2="38.400000000000006" stroke="#F7F1E8" stroke-width="1" opacity="0.34"/>
  <line x1="38.400000000000006" y1="357.6" x2="1545.6" y2="357.6" stroke="#F7F1E8" stroke-width="1" opacity="0.34"/>
  <text x="50%" y="72.0" text-anchor="middle" font-family="Arial, Helvetica, sans-serif" font-size="15" letter-spacing="9" fill="#B88A42">THE EARNALISM DIGITAL LIBRARY</text>
  <text x="50%" y="187.2" text-anchor="middle" font-family="Georgia, 'Times New Roman', serif" font-size="34" font-weight="500" fill="#F7F1E8">THE EARNALISM DIGITAL LIBRARY</text>
  <text x="50%" y="229.3" text-anchor="middle" font-family="Georgia, 'Times New Roman', serif" font-size="18" font-style="italic" fill="#B88A42">Begin with Dracula by Bram Stoker</text>
  <text x="50%" y="328.8" text-anchor="middle" font-family="Arial, Helvetica, sans-serif" font-size="15" letter-spacing="5" fill="#F7F1E8" opacity="0.78">READ BEAUTIFULLY. RETURN TO READING.</text>

</svg>
