<svg xmlns="http://www.w3.org/2000/svg" width="1024" height="1024" viewBox="0 0 1024 1024" role="img" aria-label="E">
  <rect width="100%" height="100%" fill="#130D0C"/>
  <rect width="100%" height="100%" fill="#514742" opacity="0.09"/>
  <circle cx="97" cy="53" r="1" fill="#F7F1E8" opacity="0.045"/>
  <circle cx="194" cy="106" r="1" fill="#F7F1E8" opacity="0.045"/>
  <circle cx="291" cy="159" r="1" fill="#F7F1E8" opacity="0.045"/>
  <circle cx="388" cy="212" r="1" fill="#F7F1E8" opacity="0.045"/>
  <circle cx="485" cy="265" r="1" fill="#F7F1E8" opacity="0.045"/>
  <circle cx="582" cy="318" r="1" fill="#F7F1E8" opacity="0.045"/>
  <circle cx="679" cy="371" r="1" fill="#F7F1E8" opacity="0.045"/>
  <circle cx="776" cy="424" r="1" fill="#F7F1E8" opacity="0.045"/>
  <circle cx="873" cy="477" r="1" fill="#F7F1E8" opacity="0.045"/>
  <circle cx="970" cy="530" r="1" fill="#F7F1E8" opacity="0.045"/>
  <circle cx="43" cy="583" r="1" fill="#F7F1E8" opacity="0.045"/>
  <circle cx="140" cy="636" r="1" fill="#F7F1E8" opacity="0.045"/>
  <circle cx="237" cy="689" r="1" fill="#F7F1E8" opacity="0.045"/>
  <circle cx="334" cy="742" r="1" fill="#F7F1E8" opacity="0.045"/>
  <circle cx="431" cy="795" r="1" fill="#F7F1E8" opacity="0.045"/>
  <circle cx="528" cy="848" r="1" fill="#F7F1E8" opacity="0.045"/>
  <circle cx="625" cy="901" r="1" fill="#F7F1E8" opacity="0.045"/>
  <circle cx="722" cy="954" r="1" fill="#F7F1E8" opacity="0.045"/>
  <circle cx="819" cy="1007" r="1" fill="#F7F1E8" opacity="0.045"/>
  <circle cx="916" cy="36" r="1" fill="#F7F1E8" opacity="0.045"/>
  <circle cx="1013" cy="89" r="1" fill="#F7F1E8" opacity="0.045"/>
  <circle cx="86" cy="142" r="1" fill="#F7F1E8" opacity="0.045"/>
  <circle cx="183" cy="195" r="1" fill="#F7F1E8" opacity="0.045"/>
  <circle cx="280" cy="248" r="1" fill="#F7F1E8" opacity="0.045"/>
  <circle cx="377" cy="301" r="1" fill="#F7F1E8" opacity="0.045"/>
  <circle cx="474" cy="354" r="1" fill="#F7F1E8" opacity="0.045"/>
  <circle cx="571" cy="407" r="1" fill="#F7F1E8" opacity="0.045"/>
  <circle cx="668" cy="460" r="1" fill="#F7F1E8" opacity="0.045"/>
  <circle cx="765" cy="513" r="1" fill="#F7F1E8" opacity="0.045"/>
  <circle cx="862" cy="566" r="1" fill="#F7F1E8" opacity="0.045"/>
  <circle cx="959" cy="619" r="1" fill="#F7F1E8" opacity="0.045"/>
  <circle cx="32" cy="672" r="1" fill="#F7F1E8" opacity="0.045"/>
  <circle cx="129" cy="725" r="1" fill="#F7F1E8" opacity="0.045"/>
  <circle cx="226" cy="778" r="1" fill="#F7F1E8" opacity="0.045"/>
  <circle cx="323" cy="831" r="1" fill="#F7F1E8" opacity="0.045"/>
  <circle cx="420" cy="884" r="1" fill="#F7F1E8" opacity="0.045"/>
  <circle cx="517" cy="937" r="1" fill="#F7F1E8" opacity="0.045"/>
  <circle cx="614" cy="990" r="1" fill="#F7F1E8" opacity="0.045"/>
  <circle cx="711" cy="19" r="1" fill="#F7F1E8" opacity="0.045"/>
  <circle cx="808" cy="72" r="1" fill="#F7F1E8" opacity="0.045"/>
  <circle cx="905" cy="125" r="1" fill="#F7F1E8" opacity="0.045"/>
  <circle cx="1002" cy="178" r="1" fill="#F7F1E8" opacity="0.045"/>
  <circle cx="75" cy="231" r="1" fill="#F7F1E8" opacity="0.045"/>
  <circle cx="172" cy="284" r="1" fill="#F7F1E8" opacity="0.045"/>
  <circle cx="269" cy="337" r="1" fill="#F7F1E8" opacity="0.045"/>
  <circle cx="366" cy="390" r="1" fill="#F7F1E8" opacity="0.045"/>
  <circle cx="463" cy="443" r="1" fill="#F7F1E8" opacity="0.045"/>
  <circle cx="560" cy="496" r="1" fill="#F7F1E8" opacity="0.045"/>
  <circle cx="657" cy="549" r="1" fill="#F7F1E8" opacity="0.045"/>
  <circle cx="754" cy="602" r="1" fill="#F7F1E8" opacity="0.045"/>
  <circle cx="851" cy="655" r="1" fill="#F7F1E8" opacity="0.045"/>
  <circle cx="948" cy="708" r="1" fill="#F7F1E8" opacity="0.045"/>
  <circle cx="21" cy="761" r="1" fill="#F7F1E8" opacity="0.045"/>
  <circle cx="118" cy="814" r="1" fill="#F7F1E8" opacity="0.045"/>
  <circle cx="215" cy="867" r="1" fill="#F7F1E8" opacity="0.045"/>
  <circle cx="312" cy="920" r="1" fill="#F7F1E8" opacity="0.045"/>
  <circle cx="409" cy="973" r="1" fill="#F7F1E8" opacity="0.045"/>
  <circle cx="506" cy="2" r="1" fill="#F7F1E8" opacity="0.045"/>
  <circle cx="603" cy="55" r="1" fill="#F7F1E8" opacity="0.045"/>
  <circle cx="700" cy="108" r="1" fill="#F7F1E8" opacity="0.045"/>
  <circle cx="797" cy="161" r="1" fill="#F7F1E8" opacity="0.045"/>
  <circle cx="894" cy="214" r="1" fill="#F7F1E8" opacity="0.045"/>
  <circle cx="991" cy="267" r="1" fill="#F7F1E8" opacity="0.045"/>
  <circle cx="64" cy="320" r="1" fill="#F7F1E8" opacity="0.045"/>
  <circle cx="161" cy="373" r="1" fill="#F7F1E8" opacity="0.045"/>
  <circle cx="258" cy="426" r="1" fill="#F7F1E8" opacity="0.045"/>
  <circle cx="355" cy="479" r="1" fill="#F7F1E8" opacity="0.045"/>
  <circle cx="452" cy="532" r="1" fill="#F7F1E8" opacity="0.045"/>
  <circle cx="549" cy="585" r="1" fill="#F7F1E8" opacity="0.045"/>
  <circle cx="646" cy="638" r="1" fill="#F7F1E8" opacity="0.045"/>
  <circle cx="743" cy="691" r="1" fill="#F7F1E8" opacity="0.045"/>
  <circle cx="840" cy="744" r="1" fill="#F7F1E8" opacity="0.045"/>
  <circle cx="937" cy="797" r="1" fill="#F7F1E8" opacity="0.045"/>
  <circle cx="10" cy="850" r="1" fill="#F7F1E8" opacity="0.045"/>
  <circle cx="107" cy="903" r="1" fill="#F7F1E8" opacity="0.045"/>
  <circle cx="204" cy="956" r="1" fill="#F7F1E8" opacity="0.045"/>
  <circle cx="301" cy="1009" r="1" fill="#F7F1E8" opacity="0.045"/>
  <circle cx="398" cy="38" r="1" fill="#F7F1E8" opacity="0.045"/>
  <circle cx="495" cy="91" r="1" fill="#F7F1E8" opacity="0.045"/>
  <circle cx="592" cy="144" r="1" fill="#F7F1E8" opacity="0.045"/>
  <circle cx="689" cy="197" r="1" fill="#F7F1E8" opacity="0.045"/>
  <circle cx="786" cy="250" r="1" fill="#F7F1E8" opacity="0.045"/>
  <circle cx="883" cy="303" r="1" fill="#F7F1E8" opacity="0.045"/>
  <circle cx="980" cy="356" r="1" fill="#F7F1E8" opacity="0.045"/>
  <circle cx="53" cy="409" r="1" fill="#F7F1E8" opacity="0.045"/>
  <circle cx="150" cy="462" r="1" fill="#F7F1E8" opacity="0.045"/>
  <circle cx="247" cy="515" r="1" fill="#F7F1E8" opacity="0.045"/>
  <circle cx="344" cy="568" r="1" fill="#F7F1E8" opacity="0.045"/>
  <circle cx="441" cy="621" r="1" fill="#F7F1E8" opacity="0.045"/>

  <circle cx="512.0" cy="512.0" r="235" fill="#421823" opacity="0.92"/>
  <circle cx="512.0" cy="512.0" r="269" fill="none" stroke="#B88A42" stroke-width="5" opacity="0.76"/>
  <circle cx="512.0" cy="512.0" r="297" fill="none" stroke="#F7F1E8" stroke-width="2" opacity="0.28"/>
  <text x="50%" y="561.5" text-anchor="middle" font-family="Georgia, 'Times New Roman', serif" font-size="225" font-weight="700" fill="#F7F1E8">E</text>
  <text x="50%" y="687.5" text-anchor="middle" font-family="Georgia, 'Times New Roman', serif" font-size="27" letter-spacing="8" fill="#B88A42">THE EARNALISM</text>

</svg>
